<svg version="1.1" id="Layer_1" xmlns="http://www.w3.org/2000/svg" xmlns:xlink="http://www.w3.org/1999/xlink" x="0px" y="0px"
	 width="100%" viewBox="0 0 512 512" enable-background="new 0 0 512 512" xml:space="preserve">
<path fill="#8801FF" opacity="1.000000" stroke="none" 
	d="
M1.000001,435.000000 
	C1.000000,346.312439 1.000000,257.624878 1.257969,168.256607 
	C10.621399,159.381989 21.429619,154.468460 33.019234,150.924942 
	C36.201862,149.951859 38.678658,150.037186 41.168980,152.432144 
	C52.667480,163.490295 65.433350,173.474533 75.580841,185.647705 
	C105.639076,221.706238 121.998161,262.988464 118.965408,310.745636 
	C118.809952,313.193512 118.368675,315.623230 118.060463,318.061371 
	C116.771706,314.688812 117.171165,310.157227 115.177208,308.492706 
	C108.265472,302.722839 100.521790,297.949585 92.941956,292.691193 
	C89.401581,300.018250 93.241302,311.590057 99.614998,314.470734 
	C108.076492,318.295074 115.337105,323.026886 117.367920,333.086029 
	C117.842804,332.565002 118.152832,332.358490 118.267349,332.073425 
	C118.574898,331.307800 118.824661,330.516022 119.052208,329.721710 
	C125.294052,307.932251 125.449791,285.937134 120.309662,264.016602 
	C109.833221,219.338867 86.634369,182.214264 52.498138,151.761276 
	C51.385563,150.768738 50.306423,149.738724 49.211700,148.726181 
	C49.490135,148.195053 49.768570,147.663925 50.047005,147.132797 
	C56.591011,148.835800 63.353958,149.962753 69.637505,152.350998 
	C87.671646,159.205460 99.475906,173.132294 109.086143,189.083267 
	C125.380951,216.129257 131.335419,246.195587 133.964981,277.134277 
	C134.691757,285.685608 134.983063,294.273926 135.556320,304.278900 
	C140.575974,302.188629 144.974136,300.822174 148.829285,298.538879 
	C150.537643,297.527069 152.157501,294.634064 152.104507,292.640564 
	C151.341232,263.929047 148.217606,235.507889 139.960220,207.876068 
	C133.794540,187.243683 125.131996,167.806274 109.325546,152.593552 
	C87.656479,131.738434 62.494576,124.320663 33.204231,134.071930 
	C31.678614,134.579849 29.454699,133.874146 27.849771,133.113434 
	C18.849928,128.847610 9.940374,124.391289 1.000001,120.000000 
	C1.000000,92.979103 1.000000,65.958214 1.276614,38.809547 
	C1.931957,38.359711 2.535058,38.106079 2.657146,37.705746 
	C8.047833,20.029579 19.443844,8.342113 37.158535,2.854811 
	C37.589214,2.721403 37.726089,1.639511 38.000000,1.000000 
	C183.687561,1.000000 329.375122,1.000000 475.190430,1.276598 
	C475.640228,1.931931 475.893860,2.535055 476.294159,2.657129 
	C493.970337,8.047801 505.657684,19.443945 511.145142,37.158493 
	C511.278595,37.589191 512.360474,37.726086 513.000000,38.000008 
	C513.000000,64.354225 513.000000,90.708458 512.673462,117.621964 
	C507.848419,124.377243 503.115753,130.418045 498.890320,136.794937 
	C475.071075,172.742142 457.011047,211.668961 440.386078,251.287354 
	C438.408600,255.999756 436.063354,256.571381 431.820923,255.814774 
	C413.292938,252.510513 396.443176,245.459183 381.574890,233.829224 
	C363.673828,219.827042 351.470032,202.533585 349.300812,179.171890 
	C347.315918,157.795258 358.768555,147.828720 378.002106,146.837891 
	C385.626862,146.445084 388.432800,148.795715 391.094086,156.174637 
	C392.479309,160.015457 396.418030,162.206055 400.761261,161.490845 
	C405.269012,160.748505 406.000183,157.469193 405.914215,153.675797 
	C405.681061,143.389206 399.704224,137.130646 391.036926,133.021484 
	C372.125519,124.055580 351.463379,133.781754 345.219879,155.450562 
	C338.477600,178.850494 343.868927,200.296280 358.714935,219.319611 
	C370.665466,234.632721 386.347046,245.299347 403.890472,253.087372 
	C413.833252,257.501251 424.320770,260.687897 434.839508,264.528259 
	C429.343842,277.650665 423.686768,291.158447 417.888763,305.002777 
	C415.359283,303.172272 413.542725,301.706451 411.584351,300.464203 
	C394.731995,289.774567 378.294678,278.333496 360.883301,268.644409 
	C332.897400,253.070831 302.988342,244.584915 270.659821,251.124420 
	C240.807449,257.163055 216.842529,272.012726 202.769150,300.113800 
	C181.579437,342.424408 199.416840,389.773071 242.996246,406.351868 
	C248.913452,408.602905 255.572647,409.004028 261.940918,409.878235 
	C263.114380,410.039307 264.541382,408.353088 265.851379,407.519470 
	C264.753510,406.446777 263.839783,404.902100 262.523773,404.388702 
	C258.359497,402.764191 253.828247,401.977051 249.825989,400.058624 
	C233.091690,392.037354 220.541321,379.319733 211.097046,363.603943 
	C188.954285,326.757294 206.401550,283.267548 247.915131,272.128174 
	C273.617981,265.231323 299.242767,266.560547 323.873627,276.592590 
	C353.932983,288.835632 380.921326,306.660492 407.590576,324.914062 
	C407.823212,325.073303 407.890320,325.474426 408.146088,325.984863 
	C400.079865,342.215240 390.381897,357.462280 376.987091,370.068817 
	C363.718719,382.556305 348.218872,390.390991 329.798401,391.544861 
	C317.025208,392.344971 304.596802,390.137238 292.330139,386.706635 
	C289.989868,386.052155 287.458832,386.079773 285.015808,385.792694 
	C284.810211,386.430359 284.604614,387.068054 284.399017,387.705719 
	C286.186462,388.900024 287.819275,390.546509 289.785187,391.218719 
	C309.671722,398.018219 329.897614,400.892853 350.624664,395.455658 
	C372.089172,389.825012 388.768463,376.874542 402.743988,360.237671 
	C409.465302,352.236328 415.367188,343.546692 421.966187,334.733398 
	C427.822937,338.999878 433.786865,343.487640 439.914551,347.739380 
	C442.450562,349.498993 443.131195,351.152191 442.276733,354.334900 
	C435.367523,380.069855 429.708374,406.072998 426.585510,432.571503 
	C426.322235,434.805511 426.550720,437.097443 426.550720,439.362427 
	C427.479553,439.481140 428.408386,439.599823 429.337219,439.718506 
	C433.633789,410.802582 439.109772,382.175934 448.222046,354.095459 
	C450.035400,355.329498 451.403320,356.263123 452.773956,357.192749 
	C471.238373,369.715332 489.692413,382.253326 508.188568,394.728851 
	C509.641876,395.709076 511.389282,396.253204 513.000000,397.000000 
	C513.000000,423.020905 513.000000,449.041779 512.723389,475.190491 
	C512.067993,475.640350 511.464935,475.893982 511.342834,476.294342 
	C505.952271,493.970520 494.556152,505.657806 476.841553,511.145081 
	C476.410828,511.278534 476.273956,512.360474 476.000000,513.000000 
	C330.312439,513.000000 184.624878,513.000000 38.809566,512.723389 
	C38.359749,512.068054 38.106121,511.464874 37.705769,511.342834 
	C20.029432,505.952362 8.342436,494.555908 2.854796,476.841583 
	C2.721360,476.410858 1.639501,476.273956 0.999996,476.000000 
	C1.000000,465.312439 1.000000,454.624878 1.459303,443.431152 
	C25.697363,442.667267 48.018486,436.886230 68.726410,425.140656 
	C98.459015,408.276215 121.797127,384.592743 141.015350,356.660095 
	C166.281830,319.936523 186.315323,280.268372 205.959076,240.390137 
	C226.322159,199.051590 246.581329,157.660538 267.227936,116.463860 
	C272.846710,105.252609 280.184143,95.031403 291.098999,88.120285 
	C302.467194,80.922127 311.606995,83.292610 318.278625,94.952682 
	C318.691803,95.674759 318.920929,96.622597 319.525879,97.089165 
	C320.752991,98.035606 322.301208,99.507904 323.492310,99.322166 
	C325.007141,99.085953 327.359314,97.527763 327.478607,96.349907 
	C327.778259,93.391792 327.974091,89.722374 326.508972,87.423012 
	C322.726318,81.486450 317.066162,77.654945 309.816467,76.733337 
	C301.639832,75.693886 293.901367,77.335716 286.542694,80.823570 
	C270.132294,88.601746 258.137573,101.422180 249.171524,116.617195 
	C234.892609,140.816055 221.079803,165.343262 208.291245,190.356049 
	C187.696686,230.636337 168.507599,271.634979 147.931625,311.925079 
	C134.289078,338.638763 119.090805,364.465302 96.969147,385.493408 
	C76.878166,404.591217 55.613110,421.889526 28.677711,430.218964 
	C19.807228,432.962006 10.245593,433.470001 1.000001,435.000000 
z"/>
<path fill="#FDFAFF" opacity="1.000000" stroke="none" 
	d="
M513.000000,396.531616 
	C511.389282,396.253204 509.641876,395.709076 508.188568,394.728851 
	C489.692413,382.253326 471.238373,369.715332 452.773956,357.192749 
	C451.403320,356.263123 450.035400,355.329498 448.222046,354.095459 
	C439.109772,382.175934 433.633789,410.802582 429.337219,439.718506 
	C428.408386,439.599823 427.479553,439.481140 426.550720,439.362427 
	C426.550720,437.097443 426.322235,434.805511 426.585510,432.571503 
	C429.708374,406.072998 435.367523,380.069855 442.276733,354.334900 
	C443.131195,351.152191 442.450562,349.498993 439.914551,347.739380 
	C433.786865,343.487640 427.822937,338.999878 421.966187,334.733398 
	C415.367188,343.546692 409.465302,352.236328 402.743988,360.237671 
	C388.768463,376.874542 372.089172,389.825012 350.624664,395.455658 
	C329.897614,400.892853 309.671722,398.018219 289.785187,391.218719 
	C287.819275,390.546509 286.186462,388.900024 284.399017,387.705719 
	C284.604614,387.068054 284.810211,386.430359 285.015808,385.792694 
	C287.458832,386.079773 289.989868,386.052155 292.330139,386.706635 
	C304.596802,390.137238 317.025208,392.344971 329.798401,391.544861 
	C348.218872,390.390991 363.718719,382.556305 376.987091,370.068817 
	C390.381897,357.462280 400.079865,342.215240 408.146088,325.984863 
	C407.890320,325.474426 407.823212,325.073303 407.590576,324.914062 
	C380.921326,306.660492 353.932983,288.835632 323.873627,276.592590 
	C299.242767,266.560547 273.617981,265.231323 247.915131,272.128174 
	C206.401550,283.267548 188.954285,326.757294 211.097046,363.603943 
	C220.541321,379.319733 233.091690,392.037354 249.825989,400.058624 
	C253.828247,401.977051 258.359497,402.764191 262.523773,404.388702 
	C263.839783,404.902100 264.753510,406.446777 265.851379,407.519470 
	C264.541382,408.353088 263.114380,410.039307 261.940918,409.878235 
	C255.572647,409.004028 248.913452,408.602905 242.996246,406.351868 
	C199.416840,389.773071 181.579437,342.424408 202.769150,300.113800 
	C216.842529,272.012726 240.807449,257.163055 270.659821,251.124420 
	C302.988342,244.584915 332.897400,253.070831 360.883301,268.644409 
	C378.294678,278.333496 394.731995,289.774567 411.584351,300.464203 
	C413.542725,301.706451 415.359283,303.172272 417.888763,305.002777 
	C423.686768,291.158447 429.343842,277.650665 434.839508,264.528259 
	C424.320770,260.687897 413.833252,257.501251 403.890472,253.087372 
	C386.347046,245.299347 370.665466,234.632721 358.714935,219.319611 
	C343.868927,200.296280 338.477600,178.850494 345.219879,155.450562 
	C351.463379,133.781754 372.125519,124.055580 391.036926,133.021484 
	C399.704224,137.130646 405.681061,143.389206 405.914215,153.675797 
	C406.000183,157.469193 405.269012,160.748505 400.761261,161.490845 
	C396.418030,162.206055 392.479309,160.015457 391.094086,156.174637 
	C388.432800,148.795715 385.626862,146.445084 378.002106,146.837891 
	C358.768555,147.828720 347.315918,157.795258 349.300812,179.171890 
	C351.470032,202.533585 363.673828,219.827042 381.574890,233.829224 
	C396.443176,245.459183 413.292938,252.510513 431.820923,255.814774 
	C436.063354,256.571381 438.408600,255.999756 440.386078,251.287354 
	C457.011047,211.668961 475.071075,172.742142 498.890320,136.794937 
	C503.115753,130.418045 507.848419,124.377243 512.673462,118.090622 
	C513.000000,124.021149 513.000000,130.042297 512.689575,136.673080 
	C509.394806,142.282761 506.216278,147.178192 503.457794,152.299881 
	C485.512512,185.618759 472.339172,221.031677 458.145660,255.995056 
	C458.056152,256.215576 458.319214,256.579254 458.549774,257.274506 
	C463.078186,256.898102 467.698853,256.262238 472.325439,256.215851 
	C475.536804,256.183655 476.891418,254.759796 478.093719,251.998718 
	C483.935760,238.582214 489.851501,225.193329 496.026947,211.927734 
	C501.489197,200.194168 507.327637,188.635742 513.000000,177.000000 
	C513.000000,181.024551 513.000000,185.049088 512.721497,189.743225 
	C502.863922,211.385498 493.284821,232.358185 483.296417,254.227081 
	C485.660522,253.854462 486.640289,253.779221 487.578186,253.539871 
	C496.056274,251.376266 504.527069,249.183929 513.000000,247.000000 
	C513.000000,251.024551 513.000000,255.049088 512.635498,259.648315 
	C502.468597,261.975616 492.650482,263.648071 482.878479,265.556763 
	C481.170410,265.890411 478.779205,266.832001 478.199432,268.150543 
	C475.147095,275.092560 472.574768,282.245636 469.872101,289.231598 
	C474.111938,291.390167 477.961304,293.349976 482.815948,295.821564 
	C478.406006,299.781647 475.437897,303.282898 471.732513,305.610260 
	C462.383728,311.482178 457.657104,319.979584 455.397278,330.473206 
	C454.759186,333.436188 455.174103,335.020905 457.482727,336.733398 
	C474.443726,349.315125 491.330048,361.997528 508.285675,374.586517 
	C509.683746,375.624512 511.420563,376.206268 513.000000,377.000000 
	C513.000000,383.354401 513.000000,389.708801 513.000000,396.531616 
M445.148926,326.516510 
	C446.524750,327.552460 447.900574,328.588409 449.558167,329.836517 
	C451.576843,323.603394 453.459930,318.098511 455.087830,312.519165 
	C455.442627,311.303131 455.306580,309.576721 454.682220,308.499359 
	C448.864563,298.460327 453.052826,286.672974 464.112152,282.147614 
	C465.074768,281.753723 466.219849,281.001556 466.599426,280.122040 
	C468.549591,275.603149 470.276978,270.988190 472.239227,266.008270 
	C467.418335,266.008270 463.238983,266.293915 459.118073,265.925537 
	C455.226013,265.577637 453.344147,266.792023 451.763336,270.568481 
	C446.181885,283.902313 440.076294,297.016724 434.176666,310.217590 
	C433.314270,312.147308 432.490906,314.094482 431.699677,315.917908 
	C436.236847,319.474976 440.417908,322.752869 445.148926,326.516510 
z"/>
<path fill="#FDFBFF" opacity="1.000000" stroke="none" 
	d="
M1.000001,435.444153 
	C10.245593,433.470001 19.807228,432.962006 28.677711,430.218964 
	C55.613110,421.889526 76.878166,404.591217 96.969147,385.493408 
	C119.090805,364.465302 134.289078,338.638763 147.931625,311.925079 
	C168.507599,271.634979 187.696686,230.636337 208.291245,190.356049 
	C221.079803,165.343262 234.892609,140.816055 249.171524,116.617195 
	C258.137573,101.422180 270.132294,88.601746 286.542694,80.823570 
	C293.901367,77.335716 301.639832,75.693886 309.816467,76.733337 
	C317.066162,77.654945 322.726318,81.486450 326.508972,87.423012 
	C327.974091,89.722374 327.778259,93.391792 327.478607,96.349907 
	C327.359314,97.527763 325.007141,99.085953 323.492310,99.322166 
	C322.301208,99.507904 320.752991,98.035606 319.525879,97.089165 
	C318.920929,96.622597 318.691803,95.674759 318.278625,94.952682 
	C311.606995,83.292610 302.467194,80.922127 291.098999,88.120285 
	C280.184143,95.031403 272.846710,105.252609 267.227936,116.463860 
	C246.581329,157.660538 226.322159,199.051590 205.959076,240.390137 
	C186.315323,280.268372 166.281830,319.936523 141.015350,356.660095 
	C121.797127,384.592743 98.459015,408.276215 68.726410,425.140656 
	C48.018486,436.886230 25.697363,442.667267 1.459303,442.962524 
	C1.000000,440.629425 1.000000,438.258881 1.000001,435.444153 
z"/>
<path fill="#FDFAFF" opacity="1.000000" stroke="none" 
	d="
M1.000001,120.454109 
	C9.940374,124.391289 18.849928,128.847610 27.849771,133.113434 
	C29.454699,133.874146 31.678614,134.579849 33.204231,134.071930 
	C62.494576,124.320663 87.656479,131.738434 109.325546,152.593552 
	C125.131996,167.806274 133.794540,187.243683 139.960220,207.876068 
	C148.217606,235.507889 151.341232,263.929047 152.104507,292.640564 
	C152.157501,294.634064 150.537643,297.527069 148.829285,298.538879 
	C144.974136,300.822174 140.575974,302.188629 135.556320,304.278900 
	C134.983063,294.273926 134.691757,285.685608 133.964981,277.134277 
	C131.335419,246.195587 125.380951,216.129257 109.086143,189.083267 
	C99.475906,173.132294 87.671646,159.205460 69.637505,152.350998 
	C63.353958,149.962753 56.591011,148.835800 50.047005,147.132797 
	C49.768570,147.663925 49.490135,148.195053 49.211700,148.726181 
	C50.306423,149.738724 51.385563,150.768738 52.498138,151.761276 
	C86.634369,182.214264 109.833221,219.338867 120.309662,264.016602 
	C125.449791,285.937134 125.294052,307.932251 119.052208,329.721710 
	C118.824661,330.516022 118.574898,331.307800 118.267349,332.073425 
	C118.152832,332.358490 117.842804,332.565002 117.367920,333.086029 
	C115.337105,323.026886 108.076492,318.295074 99.614998,314.470734 
	C93.241302,311.590057 89.401581,300.018250 92.941956,292.691193 
	C100.521790,297.949585 108.265472,302.722839 115.177208,308.492706 
	C117.171165,310.157227 116.771706,314.688812 118.060463,318.061371 
	C118.368675,315.623230 118.809952,313.193512 118.965408,310.745636 
	C121.998161,262.988464 105.639076,221.706238 75.580841,185.647705 
	C65.433350,173.474533 52.667480,163.490295 41.168980,152.432144 
	C38.678658,150.037186 36.201862,149.951859 33.019234,150.924942 
	C21.429619,154.468460 10.621399,159.381989 1.257969,167.787949 
	C1.000000,164.307098 1.000000,160.614182 1.335211,156.407715 
	C8.115652,150.565186 14.560883,145.236237 21.783096,139.264862 
	C14.704921,136.109497 7.852460,133.054749 1.000000,130.000000 
	C1.000000,126.969406 1.000000,123.938812 1.000001,120.454109 
z"/>
<path fill="#8901FF" opacity="1.000000" stroke="none" 
	d="
M513.000000,376.531342 
	C511.420563,376.206268 509.683746,375.624512 508.285675,374.586517 
	C491.330048,361.997528 474.443726,349.315125 457.482727,336.733398 
	C455.174103,335.020905 454.759186,333.436188 455.397278,330.473206 
	C457.657104,319.979584 462.383728,311.482178 471.732513,305.610260 
	C475.437897,303.282898 478.406006,299.781647 482.815948,295.821564 
	C477.961304,293.349976 474.111938,291.390167 469.872101,289.231598 
	C472.574768,282.245636 475.147095,275.092560 478.199432,268.150543 
	C478.779205,266.832001 481.170410,265.890411 482.878479,265.556763 
	C492.650482,263.648071 502.468597,261.975616 512.635498,260.111481 
	C513.000000,298.687561 513.000000,337.375122 513.000000,376.531342 
z"/>
<path fill="#8A04FF" opacity="1.000000" stroke="none" 
	d="
M513.000000,176.531342 
	C507.327637,188.635742 501.489197,200.194168 496.026947,211.927734 
	C489.851501,225.193329 483.935760,238.582214 478.093719,251.998718 
	C476.891418,254.759796 475.536804,256.183655 472.325439,256.215851 
	C467.698853,256.262238 463.078186,256.898102 458.549774,257.274506 
	C458.319214,256.579254 458.056152,256.215576 458.145660,255.995056 
	C472.339172,221.031677 485.512512,185.618759 503.457794,152.299881 
	C506.216278,147.178192 509.394806,142.282761 512.689575,137.141357 
	C513.000000,150.020889 513.000000,163.041794 513.000000,176.531342 
z"/>
<path fill="#8A04FF" opacity="1.000000" stroke="none" 
	d="
M513.000000,246.531342 
	C504.527069,249.183929 496.056274,251.376266 487.578186,253.539871 
	C486.640289,253.779221 485.660522,253.854462 483.296417,254.227081 
	C493.284821,232.358185 502.863922,211.385498 512.721497,190.206390 
	C513.000000,208.687561 513.000000,227.375122 513.000000,246.531342 
z"/>
<path fill="#000000" opacity="1.000000" stroke="none" 
	d="
M37.531342,1.000000 
	C37.726089,1.639511 37.589214,2.721403 37.158535,2.854811 
	C19.443844,8.342113 8.047833,20.029579 2.657146,37.705746 
	C2.535058,38.106079 1.931957,38.359711 1.276614,38.340889 
	C1.000000,25.740049 1.000000,13.480098 1.000000,1.000000 
	C13.020000,1.000000 25.041342,1.000000 37.531342,1.000000 
z"/>
<path fill="#000000" opacity="1.000000" stroke="none" 
	d="
M513.000000,37.531349 
	C512.360474,37.726086 511.278595,37.589191 511.145142,37.158493 
	C505.657684,19.443945 493.970337,8.047801 476.294159,2.657129 
	C475.893860,2.535055 475.640228,1.931931 475.659088,1.276598 
	C488.259949,1.000000 500.519897,1.000000 513.000000,1.000000 
	C513.000000,13.020000 513.000000,25.041342 513.000000,37.531349 
z"/>
<path fill="#000000" opacity="1.000000" stroke="none" 
	d="
M0.999996,476.468689 
	C1.639501,476.273956 2.721360,476.410858 2.854796,476.841583 
	C8.342436,494.555908 20.029432,505.952362 37.705769,511.342834 
	C38.106121,511.464874 38.359749,512.068054 38.340908,512.723389 
	C25.740049,513.000000 13.480098,513.000000 1.000000,513.000000 
	C1.000000,500.980011 1.000000,488.958649 0.999996,476.468689 
z"/>
<path fill="#000000" opacity="1.000000" stroke="none" 
	d="
M476.468689,513.000000 
	C476.273956,512.360474 476.410828,511.278534 476.841553,511.145081 
	C494.556152,505.657806 505.952271,493.970520 511.342834,476.294342 
	C511.464935,475.893982 512.067993,475.640350 512.723389,475.659119 
	C513.000000,488.259949 513.000000,500.519897 513.000000,513.000000 
	C500.980011,513.000000 488.958649,513.000000 476.468689,513.000000 
z"/>
<path fill="#8A05FF" opacity="1.000000" stroke="none" 
	d="
M1.000000,130.468658 
	C7.852460,133.054749 14.704921,136.109497 21.783096,139.264862 
	C14.560883,145.236237 8.115652,150.565186 1.335211,155.947067 
	C1.000000,147.645767 1.000000,139.291534 1.000000,130.468658 
z"/>
<path fill="#8A05FF" opacity="1.000000" stroke="none" 
	d="
M444.873962,326.273621 
	C440.417908,322.752869 436.236847,319.474976 431.699677,315.917908 
	C432.490906,314.094482 433.314270,312.147308 434.176666,310.217590 
	C440.076294,297.016724 446.181885,283.902313 451.763336,270.568481 
	C453.344147,266.792023 455.226013,265.577637 459.118073,265.925537 
	C463.238983,266.293915 467.418335,266.008270 472.239227,266.008270 
	C470.276978,270.988190 468.549591,275.603149 466.599426,280.122040 
	C466.219849,281.001556 465.074768,281.753723 464.112152,282.147614 
	C453.052826,286.672974 448.864563,298.460327 454.682220,308.499359 
	C455.306580,309.576721 455.442627,311.303131 455.087830,312.519165 
	C453.459930,318.098511 451.576843,323.603394 449.558167,329.836517 
	C447.900574,328.588409 446.524750,327.552460 444.873962,326.273621 
z"/>
</svg>